<?xml version="1.0" standalone="no"?>
<!DOCTYPE svg PUBLIC "-//W3C//DTD SVG 20010904//EN"
 "http://www.w3.org/TR/2001/REC-SVG-20010904/DTD/svg10.dtd">
<svg version="1.0" xmlns="http://www.w3.org/2000/svg"
 width="16.000000pt" height="16.000000pt" viewBox="0 0 50.000000 50.000000"
 preserveAspectRatio="xMidYMid meet">

<g transform="translate(0.000000,50.000000) scale(0.100000,-0.100000)"
fill="#000000" stroke="none">
<path d="M172 317 c-78 -79 -142 -148 -142 -153 0 -6 23 -36 51 -67 l51 -57
144 0 c89 0 144 4 144 10 0 6 -36 10 -87 10 l-88 0 118 118 c64 64 117 122
117 127 0 14 -142 155 -156 155 -5 0 -74 -64 -152 -143z m85 -91 l68 -65 -50
-50 c-43 -45 -54 -51 -90 -51 -36 0 -47 6 -90 50 l-49 50 64 65 c35 36 68 65
72 65 4 0 38 -29 75 -64z"/>
</g>
</svg>
